<svg width="36" height="75" viewBox="0 0 36 75" fill="none" xmlns="http://www.w3.org/2000/svg">
<path d="M6.95332 74.05C5.11411 74.0369 3.35397 73.3005 2.05342 71.9999C0.752866 70.6994 0.016428 68.9392 0.00333705 67.1V26.44C-0.00111235 26.3734 -0.00111235 26.3066 0.00333705 26.24C0.213337 24.38 2.16332 21.87 5.67332 18.91L7.33332 17.49H4.57331C4.32136 17.49 4.07975 17.3899 3.90159 17.2118C3.72343 17.0336 3.62333 16.792 3.62333 16.54C3.62333 16.2881 3.72343 16.0464 3.90159 15.8683C4.07975 15.6901 4.32136 15.59 4.57331 15.59H20.2133L27.2133 9.03001C27.3884 8.86289 27.6213 8.76976 27.8633 8.77002C27.9936 8.77047 28.1224 8.7983 28.2413 8.8517C28.3602 8.9051 28.4665 8.98289 28.5533 9.08002C28.639 9.17077 28.7058 9.27768 28.7498 9.39452C28.7937 9.51135 28.8139 9.63576 28.8093 9.7605C28.8046 9.88524 28.7752 10.0078 28.7226 10.121C28.6701 10.2343 28.5956 10.3359 28.5033 10.42L22.9533 15.59H31.3133C31.4635 15.5406 31.6233 15.5276 31.7795 15.5519C31.9357 15.5763 32.0839 15.6373 32.212 15.73C32.34 15.8227 32.4443 15.9445 32.5162 16.0853C32.5881 16.2261 32.6256 16.3819 32.6256 16.54C32.6256 16.6981 32.5881 16.854 32.5162 16.9948C32.4443 17.1356 32.34 17.2573 32.212 17.35C32.0839 17.4427 31.9357 17.5038 31.7795 17.5281C31.6233 17.5524 31.4635 17.5394 31.3133 17.49H28.5533L30.2233 18.91C33.7233 21.91 35.6733 24.38 35.8733 26.16C35.8816 26.2532 35.8816 26.3469 35.8733 26.44V67.1C35.8601 68.9479 35.1168 70.7155 33.8055 72.0175C32.4942 73.3194 30.7212 74.0501 28.8733 74.05H6.95332ZM1.90333 67.1C1.9033 67.7609 2.03425 68.4151 2.28865 69.0251C2.54304 69.635 2.91582 70.1884 3.38542 70.6534C3.85502 71.1183 4.41214 71.4855 5.02455 71.7339C5.63696 71.9822 6.29251 72.1066 6.95332 72.1H29.0533C30.3833 72.0975 31.6587 71.5715 32.6038 70.6357C33.5489 69.7 34.0876 68.4299 34.1033 67.1V51.57L33.7033 51.31H33.6433C31.4415 49.8452 28.8579 49.0593 26.2133 49.05C23.0963 49.0902 20.0866 50.1946 17.6833 52.18C15.81 53.5176 13.7092 54.5036 11.4833 55.09V53.09C13.2732 52.5581 14.9627 51.7337 16.4833 50.65C18.7417 48.7761 21.4914 47.5912 24.4046 47.2365C27.3177 46.8819 30.2713 47.3726 32.9133 48.65L34.0633 49.21V43.05L33.6633 42.79H33.6033C31.4032 41.3306 28.8235 40.5483 26.1833 40.54C23.0663 40.5802 20.0566 41.6846 17.6533 43.67C15.78 45.0076 13.6792 45.9936 11.4533 46.58V44.58C13.2432 44.0481 14.9327 43.2237 16.4533 42.14C18.7117 40.2661 21.4614 39.0812 24.3746 38.7265C27.2877 38.3719 30.2413 38.8626 32.8833 40.14L34.0333 40.7V26.4C34.0333 24.45 28.8133 19.97 25.5233 17.61L25.3133 17.46H10.6133L10.4033 17.61C7.12333 19.97 1.90333 24.45 1.90333 26.4V44.65L2.50334 44.8C3.77485 45.1254 5.08089 45.2967 6.39332 45.31V47.21C5.20737 47.1938 4.02555 47.0666 2.86332 46.83L1.86332 46.63V53.15L2.46333 53.3C3.73578 53.6206 5.04127 53.7917 6.35334 53.81V55.71C5.16739 55.6938 3.98554 55.5666 2.82331 55.33L1.82331 55.13L1.90333 67.1Z" fill="white"/>
<path d="M15.9434 2.5C16.6337 2.5 17.1934 1.94036 17.1934 1.25C17.1934 0.559644 16.6337 0 15.9434 0C15.253 0 14.6934 0.559644 14.6934 1.25C14.6934 1.94036 15.253 2.5 15.9434 2.5Z" fill="white"/>
<path d="M11.4433 8.10002C11.1763 8.10002 10.9153 8.02084 10.6933 7.8725C10.4713 7.72416 10.2983 7.51333 10.1961 7.26665C10.0939 7.01997 10.0672 6.74853 10.1193 6.48665C10.1714 6.22478 10.2999 5.98423 10.4887 5.79543C10.6775 5.60663 10.9181 5.47806 11.1799 5.42597C11.4418 5.37388 11.7133 5.4006 11.9599 5.50278C12.2066 5.60496 12.4175 5.778 12.5658 6C12.7141 6.22201 12.7933 6.48301 12.7933 6.75002C12.7933 6.9273 12.7584 7.10286 12.6906 7.26665C12.6227 7.43044 12.5233 7.57925 12.3979 7.70461C12.2726 7.82997 12.1237 7.92941 11.9599 7.99726C11.7961 8.0651 11.6206 8.10002 11.4433 8.10002Z" fill="white"/>
<path d="M17.4633 10.75C18.2917 10.75 18.9633 10.0784 18.9633 9.25C18.9633 8.42157 18.2917 7.75 17.4633 7.75C16.6349 7.75 15.9633 8.42157 15.9633 9.25C15.9633 10.0784 16.6349 10.75 17.4633 10.75Z" fill="white"/>
</svg>
