<svg width="18" height="24" viewBox="0 0 18 24" fill="none" xmlns="http://www.w3.org/2000/svg">
<g clip-path="url(#clip0_6_346)">
<path d="M15 20H0V3C0 2.20435 0.237053 1.44129 0.65901 0.87868C1.08097 0.31607 1.65326 0 2.25 0L12.75 0C13.3467 0 13.919 0.31607 14.341 0.87868C14.7629 1.44129 15 2.20435 15 3V20ZM1.5 18H13.5V3C13.5 2.73478 13.421 2.48043 13.2803 2.29289C13.1397 2.10536 12.9489 2 12.75 2H2.25C2.05109 2 1.86032 2.10536 1.71967 2.29289C1.57902 2.48043 1.5 2.73478 1.5 3V18ZM16.5 4.184V22H3V24H18V7C17.9981 6.38174 17.8529 5.77937 17.5844 5.2753C17.3159 4.77123 16.9372 4.39008 16.5 4.184V4.184Z" fill="#d90000"/>
</g>
<defs>
<clipPath id="clip0_6_346">
<rect width="18" height="24" fill="var(--red)"/>
</clipPath>
</defs>
</svg>
