<svg width="60" height="57" viewBox="0 0 60 57" fill="none" xmlns="http://www.w3.org/2000/svg">
<path d="M10.8339 0.518555C11.0309 0.4863 11.2309 0.498489 11.4228 0.549805H21.4189L21.4736 0.5625C21.7714 0.630323 22.038 0.792779 22.2382 1.02246C22.4382 1.25189 22.5628 1.53793 22.5995 1.83984C22.6363 2.14167 22.5839 2.44905 22.4472 2.7207C22.3103 2.99263 22.0944 3.21797 21.8251 3.36133L21.7148 3.41992H11.5292L11.5204 3.42285C11.2999 3.49919 11.0643 3.51918 10.8339 3.48145C10.6036 3.44365 10.3865 3.34927 10.2011 3.20801C10.0158 3.0667 9.86716 2.88239 9.76556 2.67285C9.66401 2.46333 9.61127 2.23281 9.61127 2C9.61127 1.76718 9.66401 1.53667 9.76556 1.32715C9.86715 1.11763 10.0158 0.933314 10.2011 0.791992C10.3865 0.650725 10.6036 0.556354 10.8339 0.518555Z" fill="#D90000" stroke="#D90000"/>
<path d="M13.1816 1.35999L13.1387 1.90002L12.2588 12.9791C12.23 13.5535 12.0337 14.1074 11.6943 14.5719C11.3516 15.0409 10.878 15.3983 10.333 15.5992L10.3193 15.6041L10.3047 15.609C9.83473 15.7512 9.38 15.9397 8.94824 16.1735L8.43359 16.4879C8.09716 16.7239 7.80501 17.0177 7.57031 17.3551L7.56641 17.3619L7.56152 17.3688C7.11392 17.9709 6.87136 18.7006 6.87012 19.4508V20.1803H25.4697V19.4498L25.4609 19.1881C25.4169 18.5813 25.2177 17.9942 24.8809 17.484C24.4957 16.9008 23.9467 16.4442 23.3037 16.1705L23.2852 16.1617L23.2666 16.152C22.8708 15.9425 22.4574 15.767 22.0312 15.6295C21.0499 15.3906 20.5429 14.6386 20.291 14.025C20.1625 13.712 20.0906 13.4155 20.0508 13.1989C20.0307 13.0898 20.0191 12.9984 20.0117 12.9332C20.008 12.9006 20.0055 12.8742 20.0039 12.8551C20.0032 12.847 20.0024 12.8401 20.002 12.8346L19.9443 12.3717L19.9434 12.3658L18.7734 1.92542L18.7109 1.36975H21.627L21.6768 1.81409L22.877 12.5446L22.8799 12.5719V12.5826L22.8857 12.6158C22.8942 12.6515 22.9141 12.7105 22.958 12.7799C23.0289 12.8919 23.1904 13.0735 23.5742 13.2115L23.752 13.2682L23.7832 13.276L23.8125 13.2887L23.9121 13.3297C25.2161 13.7293 26.3566 14.54 27.1621 15.6412C27.9717 16.7481 28.3988 18.0885 28.3799 19.4596V20.1901H31.3203V19.4596C31.2999 18.116 31.7091 16.8009 32.4893 15.7067C33.2649 14.6188 34.3663 13.8052 35.6338 13.3844L35.7227 13.3444L35.7812 13.318L35.8438 13.3073C36.0637 13.2688 36.2691 13.1715 36.4385 13.026C36.5956 12.891 36.7138 12.7182 36.7871 12.525L37.6318 1.84045L37.668 1.37952H40.5703L40.5283 1.91956L39.6582 12.9987L39.6572 13.0172L39.6543 13.0348C39.6109 13.3222 39.5051 13.8608 39.2266 14.3785C38.9468 14.8984 38.4717 15.4301 37.6914 15.6285C37.2227 15.7726 36.7695 15.9642 36.3389 16.1989L36.335 16.2018C36.1619 16.2937 35.9926 16.3932 35.8301 16.5026L35.8311 16.5035C35.3476 16.8321 34.9512 17.2731 34.6758 17.7887C34.4004 18.3043 34.2542 18.879 34.25 19.4635V20.1901H52.9004V19.4606L52.8896 19.1989C52.844 18.5914 52.6439 18.0039 52.3057 17.4938C51.9189 16.9105 51.3688 16.4537 50.7246 16.1803L50.707 16.1725L50.6904 16.1637C50.2887 15.9556 49.8708 15.7797 49.4414 15.6373C48.4664 15.3958 47.962 14.6464 47.7109 14.0348C47.5825 13.7218 47.5115 13.4253 47.4717 13.2086C47.4516 13.0995 47.4391 13.0082 47.4316 12.943C47.4284 12.9141 47.4264 12.8901 47.4248 12.8717L47.3555 12.3922L47.3545 12.3844L47.3535 12.3756L46.1826 1.93616L46.1211 1.37952H49.0273L49.0771 1.82483L50.2773 12.5543V12.5553C50.2784 12.5611 50.2816 12.5756 50.2881 12.5963C50.3012 12.6383 50.3282 12.7061 50.3818 12.7838C50.4797 12.9255 50.693 13.1385 51.167 13.2799H51.2236L51.2939 13.3014C52.6096 13.6979 53.7601 14.5126 54.5713 15.6217C55.381 16.7288 55.8091 18.0688 55.79 19.4401V20.1696H57.7754C57.9644 20.1716 58.1513 20.2116 58.3252 20.2858C58.499 20.36 58.6568 20.4672 58.7891 20.6022C58.9214 20.7373 59.0262 20.8974 59.0967 21.0729C59.1665 21.2466 59.2015 21.4325 59.2002 21.6198V54.0651L59.1943 54.2076C59.1816 54.3503 59.148 54.4906 59.0938 54.6237C59.0214 54.8011 58.9139 54.9627 58.7783 55.0983C58.6428 55.2338 58.4812 55.3413 58.3037 55.4137C58.128 55.4853 57.9398 55.5205 57.75 55.5192L2 55.5201C1.61505 55.5205 1.24491 55.3722 0.96582 55.1071C0.686732 54.8419 0.520319 54.4798 0.500977 54.0953L0.5 54.0826V21.6403C0.5 21.2425 0.658233 20.861 0.939453 20.5797C1.22076 20.2984 1.60218 20.1403 2 20.1403H3.9502V19.4059C3.96254 18.0503 4.39793 16.7319 5.19629 15.6364C5.99462 14.5408 7.1158 13.7225 8.40234 13.2955L8.47949 13.2701H8.55762C8.74715 13.2184 8.92248 13.1242 9.06738 12.9908C9.21209 12.8577 9.31942 12.6908 9.38672 12.5065L10.2314 1.82092L10.2676 1.35999H13.1816ZM3.46973 52.6002H56.2705L56.3193 23.0699H3.46973V52.6002Z" fill="#D90000" stroke="#D90000"/>
<path d="M37.831 0.518555C38.0267 0.486383 38.2253 0.499131 38.416 0.549805H48.4208L48.4755 0.5625C48.7732 0.630416 49.0394 0.793573 49.2392 1.02344C49.4386 1.2529 49.5629 1.53834 49.5995 1.83984C49.6362 2.14141 49.5845 2.44914 49.4482 2.7207C49.3118 2.99242 49.0959 3.2178 48.8271 3.36133L48.7167 3.41992H38.5234L38.5175 3.42188C38.2971 3.49844 38.0613 3.5193 37.831 3.48145C37.6007 3.44354 37.3842 3.34857 37.1992 3.20703C37.0142 3.06555 36.8658 2.88138 36.7646 2.67188C36.6635 2.46254 36.6113 2.23244 36.6113 2C36.6113 1.76755 36.6635 1.53745 36.7646 1.32812C36.8658 1.11864 37.0142 0.934466 37.1992 0.792969C37.3842 0.651425 37.6007 0.556461 37.831 0.518555Z" fill="#D90000" stroke="#D90000"/>
<path d="M46.6202 29.24V29.241C46.8163 29.2394 47.0107 29.277 47.1915 29.3533C47.3743 29.4304 47.5392 29.5444 47.6758 29.6882C47.8125 29.8321 47.9178 30.0027 47.9854 30.1892C48.0494 30.3656 48.0772 30.5527 48.0694 30.74H48.0704V44.9421L48.0694 44.9548C48.0511 45.3268 47.8952 45.6788 47.6319 45.9421C47.3686 46.2054 47.0165 46.3614 46.6446 46.3796H13.17V46.3787C12.7851 46.379 12.4149 46.2326 12.1358 45.9675C11.8566 45.7022 11.6902 45.3395 11.671 44.9548L11.67 44.9421V30.74C11.67 30.3422 11.8281 29.9607 12.1094 29.6794C12.3907 29.3982 12.7722 29.24 13.17 29.24H46.6202ZM14.6202 43.4998H45.1797V32.1902H14.6202V43.4998Z" fill="#D90000" stroke="#D90000"/>
</svg>
