<svg width="58" height="60" viewBox="0 0 58 60" fill="none" xmlns="http://www.w3.org/2000/svg">
<path d="M9.59003 1.92H20.27H20.37C20.5545 1.82676 20.7056 1.67864 20.8025 1.49602C20.8993 1.31339 20.9372 1.10523 20.9109 0.900191C20.8846 0.69515 20.7953 0.503294 20.6555 0.351042C20.5157 0.198791 20.3321 0.0936228 20.13 0.0500014H9.59003C9.43983 0.000635426 9.28007 -0.012418 9.12386 0.0119155C8.96764 0.0362491 8.81942 0.0972757 8.69136 0.189986C8.5633 0.282695 8.45904 0.404451 8.38715 0.545256C8.31525 0.686061 8.27777 0.841901 8.27777 0.999998C8.27777 1.1581 8.31525 1.31395 8.38715 1.45476C8.45904 1.59556 8.5633 1.7173 8.69136 1.81001C8.81942 1.90272 8.96764 1.96375 9.12386 1.98808C9.28007 2.01241 9.43983 1.99938 9.59003 1.95001V1.92Z" fill="#d90000"/>
<path d="M56.77 25.3H54.29V24.07C54.309 22.8048 53.9152 21.5678 53.1682 20.5465C52.4211 19.5251 51.3615 18.7751 50.15 18.41H50.09C48.85 18.07 48.78 17.24 48.78 17.24L47.58 6.50999H45.68L46.85 16.95L46.92 17.43C46.92 17.43 47.04 19.43 48.59 19.79C49.0475 19.9412 49.4922 20.1284 49.92 20.35C50.6544 20.6617 51.2811 21.1824 51.722 21.8473C52.1629 22.5123 52.3987 23.2921 52.4 24.09V25.32H32.75V24.09C32.7548 23.4245 32.9211 22.7701 33.2346 22.1831C33.5481 21.5961 33.9995 21.094 34.55 20.72C34.7275 20.6005 34.9111 20.4904 35.1 20.39C35.5616 20.1384 36.0474 19.9341 36.55 19.78C37.78 19.48 38.08 18.12 38.16 17.59L39.03 6.50999H37.13L36.28 17.27C36.1802 17.567 36.0022 17.8315 35.7645 18.0357C35.5269 18.2398 35.2386 18.3761 34.93 18.43L34.82 18.48C33.6411 18.8647 32.6166 19.617 31.8967 20.6267C31.1768 21.6363 30.7994 22.8501 30.82 24.09V25.32H26.88V24.09C26.899 22.8248 26.5052 21.5878 25.7581 20.5665C25.0111 19.5451 23.9515 18.7951 22.74 18.43L22.62 18.38C21.38 18.04 21.38 17.23 21.38 17.23L20.18 6.49998H18.27L19.44 16.94L19.5 17.42C19.5 17.42 19.62 19.42 21.17 19.78C21.6289 19.9272 22.074 20.1146 22.5 20.34V20.34C23.2334 20.6521 23.8586 21.1732 24.2978 21.8383C24.7371 22.5033 24.9708 23.283 24.97 24.08V25.31H5.37V24.08C5.37141 23.2225 5.64835 22.3881 6.15999 21.7C6.43128 21.3099 6.76991 20.9713 7.15999 20.7L7.7 20.37C8.16464 20.1175 8.65383 19.9131 9.15999 19.76C9.6127 19.5931 10.006 19.2962 10.2907 18.9066C10.5753 18.517 10.7386 18.052 10.76 17.57L11.64 6.48999H9.73L8.87999 17.25C8.78812 17.533 8.6248 17.7875 8.40584 17.989C8.18687 18.1904 7.91965 18.332 7.62999 18.4H7.56C6.37235 18.7941 5.33764 19.5497 4.60068 20.561C3.86372 21.5723 3.46139 22.7887 3.45 24.04V25.27H1C0.734784 25.27 0.480429 25.3753 0.292892 25.5629C0.105356 25.7504 0 26.0048 0 26.27V58.7C0.0128386 58.9565 0.123835 59.1981 0.309998 59.375C0.496161 59.5518 0.743223 59.6503 1 59.65H56.75C56.8751 59.6513 56.9992 59.6277 57.1151 59.5804C57.231 59.5331 57.3362 59.4632 57.4247 59.3747C57.5132 59.2862 57.5831 59.181 57.6304 59.0651C57.6777 58.9492 57.7013 58.8251 57.7 58.7V26.25C57.7013 26.1265 57.6783 26.004 57.6323 25.8895C57.5863 25.7749 57.5181 25.6706 57.4318 25.5824C57.3454 25.4941 57.2425 25.4238 57.129 25.3754C57.0154 25.3269 56.8934 25.3013 56.77 25.3V25.3ZM55.77 57.73H1.96999V27.2H55.82L55.77 57.73Z" fill="#d90000"/>
<path d="M36.97 1.92H47.68H47.79C47.9745 1.82676 48.1256 1.67864 48.2225 1.49602C48.3193 1.31339 48.3572 1.10523 48.3309 0.900191C48.3046 0.69515 48.2154 0.503294 48.0755 0.351042C47.9357 0.198791 47.7521 0.0936228 47.55 0.0500014H36.97C36.8198 0.000635426 36.6601 -0.012418 36.5039 0.0119155C36.3476 0.0362491 36.1994 0.0972757 36.0714 0.189986C35.9433 0.282695 35.839 0.404451 35.7672 0.545256C35.6953 0.686061 35.6578 0.841901 35.6578 0.999998C35.6578 1.1581 35.6953 1.31395 35.7672 1.45476C35.839 1.59556 35.9433 1.7173 36.0714 1.81001C36.1994 1.90272 36.3476 1.96375 36.5039 1.98808C36.6601 2.01241 36.8198 1.99938 36.97 1.95001V1.92Z" fill="#d90000"/>
<path d="M12.17 50.5101H45.62C45.868 50.4979 46.1027 50.394 46.2783 50.2184C46.4539 50.0428 46.5579 49.8081 46.57 49.5601V35.3701C46.5783 35.2408 46.5597 35.1113 46.5156 34.9895C46.4714 34.8678 46.4026 34.7565 46.3134 34.6626C46.2242 34.5687 46.1166 34.4942 45.9972 34.4439C45.8779 34.3936 45.7495 34.3684 45.62 34.3701H12.17C11.9048 34.3701 11.6504 34.4754 11.4629 34.663C11.2753 34.8505 11.17 35.1049 11.17 35.3701V49.5601C11.1828 49.8165 11.2938 50.0582 11.48 50.2351C11.6661 50.4119 11.9132 50.5104 12.17 50.5101ZM13.12 36.3201H44.68V48.6301H13.12V36.3201Z" fill="#d90000"/>
</svg>
